<?xml version="1.0" encoding="UTF-8"?>
<svg id="Layer_2" data-name="Layer 2" xmlns="http://www.w3.org/2000/svg" viewBox="0 0 1615.16 413.84">
  <defs>
    <style>
      .cls-1 {
        fill: #fff;
      }
    </style>
  </defs>
  <g id="Layer_1-2" data-name="Layer 1">
    <g>
      <path class="cls-1" d="m23.53,279.69c0,3.24.22,6.44.58,9.6C11.39,267.78,3.21,242.14.28,214.73l22.95,3.5c.09.63.2,1.24.29,1.86v59.6Zm175.54-61.42v61.39c0,2.84-.16,5.66-.44,8.43,12.31-21.24,20.25-46.41,23.13-73.28l-22.69,3.45Zm23.58-56.61v36.58l-39.84,6.06v75.36h0c-.07,38.31-32.05,69.49-71.5,69.86h0s0,0,0,0,0,0,0,0h0c-39.45-.38-71.44-31.56-71.5-69.86h0v-75.36L0,198.24v-36.58l96.24,12.48-5.42,76.21,20.47,5.62,20.47-5.62-5.4-76.22,96.28-12.47ZM1.07,145.53l21.26,2.76c.1-39,25.4-72.14,60.44-84.03v-22.27C36.66,54.35,2.4,95.9,1.07,145.53ZM139.75,41.97v22.27c35.07,11.87,60.43,45.03,60.53,84.05l21.25-2.75c-1.33-49.67-35.63-91.22-81.78-103.57ZM98.92,1.52v154.7l12.37,1.56,12.37-1.61V1.52c-4.02-1.22-8.05-1.52-12.13-1.52s-8.43.29-12.6,1.52Zm796.98,148.09c-15.92,0-30.7,4.89-42.93,13.24v-73.64h-58.29v32.89h25.4v178.37h32.89v-11.69c12.23,8.35,27,13.24,42.93,13.24,42.09,0,76.2-34.12,76.2-76.2s-34.12-76.2-76.2-76.2Zm-.84,119.88c-24.12,0-43.68-19.56-43.68-43.68s19.56-43.68,43.68-43.68,43.68,19.56,43.68,43.68-19.56,43.68-43.68,43.68Zm-418.31-37.6c-.01,20.48-17.48,37.16-39.09,37.52-21.61-.37-39.08-17.04-39.09-37.52V89.21h-58.29v32.59h25.7v110.19h0c.07,38.4,32.13,69.65,71.67,70.03h0s0,0,0,0,0,0,0,0h0c39.55-.38,71.6-31.63,71.67-70.03h0v-110.19h25.7v-32.59h-58.29v142.68Zm611.45-82.3h-6.54c-27.19,0-37.01,17.77-37.01,17.77v-16.2h-58.29v32.59h25.7v41.76c0,.05,0,.11,0,.16h0v.04c0,.17-.01.34-.01.51,0,.12.01.23.01.35v23.09h0v18.39h-17.93v32.25h68.57v-32.25h-18.05v-45.55c0-19,9.48-40.34,44.07-40.34.07,0,.14.01.22.01h23.22v-32.59s-23.78,0-23.95,0Zm157.32,56.96c-.4-31.51-25.68-57.03-56.75-57.15h0s-50.25,0-50.25,0v32.59h50.07c12.42.02,22.57,11.01,24.39,23.12-5.38-2.03-11.19-3.17-17.25-3.22h-20.08c-27.24.49-49.25,22.78-49.25,50.13s22.66,51.69,55.2,50.01c15.14-.78,26.49-8.28,31.71-16.3v14.59h50.45v-32.25h-18.24s0-61.51,0-61.51Zm-48.9,60.77h-19.83c-9.83-.09-17.8-8.11-17.8-17.97s7.97-17.88,17.8-17.98h0s19.63,0,19.63,0h0c9.83.11,17.8,8.13,17.8,17.99s-7.86,17.76-17.6,17.97Zm-423.96-63.41c-.05-29.58-24.86-53.89-55.41-54.18-.08,0-4.3,0-4.3,0-15.28.16-29.13,6.37-39.15,16.25-10.04-9.9-21.14-16.26-34.37-16.26s-24.27,4.96-31.86,15.84v-14.41h-58.29v32.25h25.71v84.64h-18.21v32.25h68.57v-32.25h-18.11v-64.06c0-11.91,10.4-21.78,23.02-22h0s4.17,0,4.22,0c12.78.22,23.18,10.09,23.19,22v96.31h32.25v-96.31c0-11.91,10.4-21.78,23.02-22h0s4.21,0,4.27,0c12.78.22,23.18,10.09,23.19,22v96.31h50.2v-32.25h-17.95v-64.14Zm806.31,38.39h34.37c1.17-5.3,1.81-10.8,1.81-16.45s-.64-11.15-1.81-16.45c-7.54-34.11-38.01-59.72-74.36-59.72-42,0-76.17,34.17-76.17,76.17s34.17,76.17,76.17,76.17c30.21,0,56.34-17.69,68.64-43.25h-40.66c-.77.65-1.57,1.26-2.39,1.86-.25.18-.49.38-.74.56-.67.47-1.37.92-2.07,1.35-.46.29-.92.58-1.39.85-.58.33-1.17.64-1.77.95-.66.34-1.33.66-2.01.97-.47.21-.94.41-1.42.61-.89.36-1.79.69-2.71.99-.32.1-.63.22-.95.31-1.19.36-2.4.67-3.63.93-.08.02-.16.04-.24.05-2.8.58-5.69.91-8.66.91-5.95,0-11.6-1.23-16.76-3.41-.07-.03-.15-.07-.22-.1-1.13-.49-2.24-1.02-3.31-1.6-.18-.1-.37-.19-.55-.29-1.14-.63-2.26-1.3-3.34-2.03,0,0,0,0,0,0-1.05-.71-2.06-1.48-3.05-2.28-.29-.24-.57-.49-.86-.74-.65-.56-1.29-1.13-1.9-1.73-.34-.33-.68-.66-1.01-1-.58-.6-1.13-1.22-1.68-1.85-.28-.32-.57-.63-.84-.96-.72-.88-1.39-1.79-2.04-2.73-.32-.46-.61-.94-.92-1.41-.36-.57-.71-1.14-1.04-1.72-.3-.52-.59-1.04-.86-1.57-.32-.61-.61-1.24-.9-1.86-.23-.5-.48-1-.69-1.51,0,0,0-.02,0-.02h79.98Zm-80.75-30.88c4.87-13.79,16.49-24.35,30.92-27.71,0,0,0,0,.01,0,.93-.22,1.87-.39,2.82-.55.26-.04.53-.08.8-.12.93-.13,1.86-.25,2.81-.32.12,0,.24,0,.35-.02,1.01-.07,2.02-.12,3.05-.12s2.04.05,3.05.12c.12,0,.24,0,.36.02.95.07,1.88.19,2.81.32.27.04.53.08.8.12.95.16,1.89.33,2.82.55,0,0,0,0,.01,0,14.43,3.36,26.05,13.92,30.92,27.71h-81.52Zm-101.84-44c-11.11-13.52-26.98-17.78-42.93-17.78-41.59,0-75.43,33.84-75.43,75.43s33.84,75.43,75.43,75.43c15.94,0,30.73-4.98,42.93-13.46v8.99c-.18,23.47-19.31,42.51-42.82,42.51-11.89,0-22.66-4.88-30.43-12.73l-23.04,23.04c13.67,13.75,28.51,22.28,49.39,22.28,41.3,0,79.01-33.37,79.48-74.56,0,0,0-113.17,0-113.17h25.7v-32.25h-58.29v16.27Zm-42.93,100.49c-23.62,0-42.84-19.22-42.84-42.84s19.22-42.84,42.84-42.84,42.84,19.22,42.84,42.84-19.22,42.84-42.84,42.84Z"/>
      <g>
        <path class="cls-1" d="m364.9,344h19.78c3.61,0,6.81.7,9.6,2.09s4.95,3.35,6.48,5.87c1.53,2.52,2.3,5.39,2.3,8.62s-.77,6.1-2.3,8.62c-1.53,2.52-3.69,4.49-6.48,5.91-2.79,1.42-5.99,2.13-9.6,2.13h-11.08v20.93h-8.7v-54.16Zm19.61,25.44c3.06,0,5.43-.8,7.1-2.4,1.67-1.6,2.5-3.73,2.5-6.38s-.83-4.8-2.5-6.42c-1.67-1.63-4.04-2.44-7.1-2.44h-10.91v17.64h10.91Z"/>
        <path class="cls-1" d="m438.76,361.32c3.01,2.9,4.51,7.06,4.51,12.47v24.37h-8.04v-4.51c-1.48,1.75-3.31,3.09-5.5,4.02-2.19.93-4.65,1.4-7.39,1.4-4.21,0-7.61-1.07-10.18-3.2-2.57-2.13-3.86-4.95-3.86-8.45s1.34-6.29,4.02-8.37c2.68-2.08,6.29-3.12,10.83-3.12h11.41v-2.61c0-2.77-.75-4.89-2.26-6.35-1.5-1.47-3.62-2.2-6.36-2.2-2.24,0-4.24.49-5.99,1.46-1.75.97-3.48,2.46-5.17,4.45l-5.01-5.09c2.02-2.9,4.49-5.06,7.39-6.48,2.9-1.42,6.1-2.13,9.6-2.13,4.98,0,8.97,1.45,11.98,4.35Zm-7.22,28.68c2.02-1.89,3.04-4.27,3.04-7.14v-.77h-10.34c-2.3,0-4.06.43-5.29,1.29-1.23.86-1.85,2.15-1.85,3.87s.66,3.15,1.97,4.13,3.01,1.46,5.09,1.46c2.9,0,5.36-.95,7.39-2.84Z"/>
        <path class="cls-1" d="m478.31,358.27v7.4h-2.63c-3.39,0-6.21.97-8.45,2.9-2.24,1.93-3.36,4.67-3.36,8.21v21.39h-8.62v-40.29h8.04v5.6c1.42-1.79,3.16-3.17,5.21-4.14,2.05-.97,4.23-1.46,6.52-1.46,1.2,0,2.3.13,3.28.4Z"/>
        <path class="cls-1" d="m509.99,390.86v7.3c-2.68.6-5.06.9-7.14.9-4.65,0-8.29-1.15-10.91-3.45-2.63-2.3-3.94-5.78-3.94-10.44v-19.5h-6.57v-7.8h6.57v-10.59h8.7v10.59h11.98v7.8h-11.98v18.72c0,2.54.67,4.32,2.01,5.35,1.34,1.03,3.32,1.54,5.95,1.54,1.2,0,2.98-.14,5.33-.41Z"/>
        <path class="cls-1" d="m549.67,396.24c-3.26-1.89-5.83-4.44-7.71-7.67-1.89-3.23-2.83-6.76-2.83-10.59s.94-7.43,2.83-10.63c1.89-3.2,4.46-5.73,7.71-7.59,3.25-1.86,6.82-2.79,10.71-2.79s7.55.93,10.83,2.79c3.28,1.86,5.87,4.4,7.75,7.63,1.89,3.23,2.83,6.76,2.83,10.59s-.94,7.36-2.83,10.59c-1.89,3.23-4.47,5.79-7.75,7.67-3.28,1.89-6.89,2.83-10.83,2.83s-7.46-.94-10.71-2.83Zm17.11-6.7c1.91-1.16,3.42-2.75,4.51-4.76,1.09-2.02,1.64-4.24,1.64-6.67s-.55-4.75-1.64-6.79c-1.09-2.04-2.6-3.65-4.51-4.8-1.92-1.16-4.02-1.74-6.32-1.74s-4.49.58-6.4,1.74c-1.92,1.16-3.42,2.76-4.51,4.8-1.09,2.04-1.64,4.31-1.64,6.79s.55,4.74,1.64,6.75c1.09,2.02,2.59,3.59,4.47,4.72,1.89,1.13,4.01,1.7,6.36,1.7s4.49-.58,6.4-1.74Z"/>
        <path class="cls-1" d="m603.7,345.07c-1.31,1.04-1.97,2.85-1.97,5.42v7.39h9.52v7.8h-9.52v32.5h-8.62v-32.5h-5.74v-7.8h5.74v-8.12c0-4.7,1.28-8.22,3.86-10.54,2.57-2.32,6.07-3.49,10.5-3.49,2.19,0,4.05.25,5.58.74v7.3c-1.31-.16-2.46-.25-3.45-.25-2.63,0-4.6.52-5.91,1.56Z"/>
        <path class="cls-1" d="m677.28,373.61c1.78,2.43,2.67,5.32,2.67,8.68,0,3.03-.73,5.76-2.18,8.19-1.45,2.43-3.5,4.31-6.15,5.66-2.65,1.35-5.73,2.03-9.23,2.03h-23.22v-54.16h18.96c3.23,0,6.07.61,8.53,1.83,2.46,1.22,4.36,2.91,5.7,5.08,1.34,2.17,2.01,4.63,2.01,7.4,0,2.06-.38,3.94-1.15,5.65-.77,1.71-1.89,3.19-3.36,4.43,3.17,1.05,5.65,2.78,7.43,5.21Zm-29.58-21.81v14.12h9.6c2.68,0,4.75-.65,6.2-1.94,1.45-1.29,2.18-3.03,2.18-5.19s-.73-3.87-2.18-5.11-3.52-1.86-6.2-1.86h-9.6Zm20.97,36.34c1.67-1.49,2.5-3.51,2.5-6.05s-.83-4.58-2.5-6.09c-1.67-1.52-4.01-2.28-7.02-2.28h-13.95v16.66h13.95c3.01,0,5.35-.75,7.02-2.23Z"/>
        <path class="cls-1" d="m716.79,361.32c3.01,2.9,4.51,7.06,4.51,12.47v24.37h-8.04v-4.51c-1.48,1.75-3.31,3.09-5.5,4.02-2.19.93-4.65,1.4-7.39,1.4-4.21,0-7.61-1.07-10.18-3.2-2.57-2.13-3.86-4.95-3.86-8.45s1.34-6.29,4.02-8.37c2.68-2.08,6.29-3.12,10.83-3.12h11.41v-2.61c0-2.77-.75-4.89-2.26-6.35-1.5-1.47-3.62-2.2-6.36-2.2-2.24,0-4.24.49-5.99,1.46-1.75.97-3.48,2.46-5.17,4.45l-5.01-5.09c2.02-2.9,4.49-5.06,7.39-6.48,2.9-1.42,6.1-2.13,9.6-2.13,4.98,0,8.97,1.45,11.98,4.35Zm-7.22,28.68c2.02-1.89,3.04-4.27,3.04-7.14v-.77h-10.34c-2.3,0-4.06.43-5.29,1.29-1.23.86-1.85,2.15-1.85,3.87s.66,3.15,1.97,4.13,3.01,1.46,5.09,1.46c2.9,0,5.36-.95,7.39-2.84Z"/>
        <path class="cls-1" d="m733.45,346.88c-1.15-1.09-1.72-2.43-1.72-4.02s.57-2.94,1.72-4.06c1.15-1.12,2.54-1.68,4.19-1.68s2.95.56,4.1,1.68c1.15,1.12,1.72,2.48,1.72,4.06s-.58,2.93-1.72,4.02c-1.15,1.09-2.52,1.64-4.1,1.64s-3.04-.55-4.19-1.64Zm-.16,11h8.62v40.29h-8.62v-40.29Z"/>
        <path class="cls-1" d="m785.56,361.36c2.68,2.93,4.02,6.8,4.02,11.61v25.19h-8.62v-24.04c0-2.79-.81-5.05-2.42-6.77-1.61-1.72-3.73-2.59-6.36-2.59s-4.88.88-6.61,2.63c-1.72,1.75-2.59,3.99-2.59,6.73v24.04h-8.62v-40.29h8.04v3.94c3.06-3.23,7.08-4.84,12.06-4.84,4.7,0,8.4,1.46,11.08,4.39Z"/>
        <path class="cls-1" d="m866.97,377.57c-3.12,4.65-5.42,7.88-6.89,9.68l9.03,10.91h-10.26l-4.19-5.09c-2.24,1.97-4.6,3.46-7.06,4.47s-5.2,1.52-8.21,1.52c-3.28,0-6.24-.61-8.86-1.85-2.63-1.23-4.66-2.95-6.11-5.17-1.45-2.22-2.18-4.72-2.18-7.51s.86-5.58,2.59-8.04,4.72-5.33,8.99-8.62c-1.81-2.3-3.13-4.43-3.98-6.4-.85-1.97-1.27-3.97-1.27-5.99,0-3.72,1.19-6.72,3.57-8.99,2.38-2.27,5.51-3.41,9.4-3.41s6.77,1.07,9.15,3.2,3.57,4.9,3.57,8.29c0,2.52-.74,4.92-2.22,7.22-1.48,2.3-3.83,4.71-7.06,7.22l9.77,11.74c.71-.99,2.41-3.47,5.09-7.47.55-.87,1.42-2.19,2.63-3.94l6.89,4.76-2.38,3.45Zm-17.48,9.27l-10.83-13.13c-3.06,2.41-5.09,4.27-6.07,5.58-.99,1.31-1.48,2.79-1.48,4.43,0,2.19.81,3.99,2.42,5.42,1.61,1.42,3.71,2.13,6.28,2.13,3.34,0,6.57-1.48,9.68-4.43Zm-11.61-34.7c-.85.83-1.27,2.03-1.27,3.58,0,1.18.3,2.35.9,3.5.6,1.15,1.59,2.59,2.95,4.31,2.08-1.61,3.56-3.02,4.43-4.23.87-1.21,1.31-2.51,1.31-3.9s-.42-2.5-1.27-3.3c-.85-.81-2.01-1.21-3.49-1.21s-2.72.42-3.57,1.25Z"/>
        <path class="cls-1" d="m912.23,395.38c-4.35-2.46-7.8-5.83-10.34-10.09-2.54-4.27-3.82-9-3.82-14.2s1.27-9.93,3.82-14.2c2.54-4.27,5.99-7.63,10.34-10.09,4.35-2.46,9.12-3.69,14.32-3.69s9.51,1.12,13.58,3.35c4.08,2.23,7.29,5.25,9.64,9.06l-6.56,4.82c-1.92-3.04-4.27-5.37-7.06-7-2.79-1.63-5.96-2.44-9.52-2.44s-6.99.87-9.97,2.61c-2.98,1.74-5.32,4.15-7.02,7.24-1.7,3.09-2.54,6.54-2.54,10.34s.85,7.25,2.54,10.34c1.7,3.09,4.03,5.5,7.02,7.24,2.98,1.74,6.31,2.61,9.97,2.61s6.73-.81,9.52-2.44c2.79-1.63,5.14-3.96,7.06-7l6.56,4.82c-2.3,3.81-5.49,6.83-9.56,9.07-4.08,2.23-8.63,3.35-13.66,3.35s-9.97-1.23-14.32-3.69Z"/>
        <path class="cls-1" d="m966.8,396.24c-3.26-1.89-5.83-4.44-7.71-7.67-1.89-3.23-2.83-6.76-2.83-10.59s.94-7.43,2.83-10.63c1.89-3.2,4.46-5.73,7.71-7.59,3.25-1.86,6.82-2.79,10.71-2.79s7.55.93,10.83,2.79c3.28,1.86,5.87,4.4,7.75,7.63,1.89,3.23,2.83,6.76,2.83,10.59s-.94,7.36-2.83,10.59c-1.89,3.23-4.47,5.79-7.75,7.67-3.28,1.89-6.89,2.83-10.83,2.83s-7.46-.94-10.71-2.83Zm17.11-6.7c1.91-1.16,3.42-2.75,4.51-4.76,1.09-2.02,1.64-4.24,1.64-6.67s-.55-4.75-1.64-6.79c-1.09-2.04-2.6-3.65-4.51-4.8-1.92-1.16-4.02-1.74-6.32-1.74s-4.49.58-6.4,1.74c-1.92,1.16-3.42,2.76-4.51,4.8-1.09,2.04-1.64,4.31-1.64,6.79s.55,4.74,1.64,6.75c1.09,2.02,2.59,3.59,4.47,4.72,1.89,1.13,4.01,1.7,6.36,1.7s4.49-.58,6.4-1.74Z"/>
        <path class="cls-1" d="m1065.28,361.36c2.65,2.93,3.98,6.8,3.98,11.61v25.19h-8.7v-24.02c0-2.85-.75-5.13-2.26-6.83-1.51-1.7-3.54-2.55-6.11-2.55s-4.76.85-6.4,2.55-2.46,3.84-2.46,6.42v24.43h-8.62v-24.02c0-2.8-.77-5.06-2.3-6.79-1.53-1.73-3.58-2.59-6.15-2.59s-4.76.86-6.4,2.59c-1.64,1.73-2.46,3.99-2.46,6.79v24.02h-8.62v-40.29h8.04v3.78c1.42-1.48,3.12-2.63,5.09-3.45s4.16-1.23,6.57-1.23c2.79,0,5.22.56,7.3,1.68,2.08,1.12,3.72,2.67,4.92,4.64,1.48-1.91,3.41-3.45,5.79-4.6s4.99-1.72,7.84-1.72c4.65,0,8.3,1.46,10.96,4.39Z"/>
        <path class="cls-1" d="m1113.49,359.72c3.01,1.83,5.36,4.35,7.06,7.55,1.7,3.2,2.54,6.77,2.54,10.71s-.85,7.59-2.54,10.79c-1.7,3.2-4.05,5.72-7.06,7.55-3.01,1.83-6.4,2.75-10.18,2.75-2.74,0-5.27-.51-7.59-1.52-2.33-1.01-4.28-2.45-5.87-4.31v19.7h-8.62v-55.07h8.04v5.66c1.48-2.08,3.45-3.69,5.91-4.84s5.17-1.72,8.12-1.72c3.77,0,7.17.92,10.18,2.75Zm-5.33,29.86c1.86-1.13,3.34-2.68,4.43-4.66,1.09-1.98,1.64-4.27,1.64-6.86s-.53-4.89-1.6-6.89-2.54-3.58-4.43-4.71c-1.89-1.13-3.98-1.69-6.28-1.69-2.13,0-4.12.48-5.95,1.45-1.83.96-3.32,2.44-4.47,4.42-1.15,1.98-1.72,4.43-1.72,7.35s.57,5.38,1.72,7.39c1.15,2.01,2.64,3.5,4.47,4.46,1.83.96,3.82,1.45,5.95,1.45,2.3,0,4.38-.56,6.24-1.69Z"/>
        <path class="cls-1" d="m1160.51,361.32c3.01,2.9,4.51,7.06,4.51,12.47v24.37h-8.04v-4.51c-1.48,1.75-3.31,3.09-5.5,4.02-2.19.93-4.65,1.4-7.39,1.4-4.21,0-7.61-1.07-10.18-3.2-2.57-2.13-3.86-4.95-3.86-8.45s1.34-6.29,4.02-8.37c2.68-2.08,6.29-3.12,10.83-3.12h11.41v-2.61c0-2.77-.75-4.89-2.26-6.35-1.5-1.47-3.62-2.2-6.36-2.2-2.24,0-4.24.49-5.99,1.46-1.75.97-3.48,2.46-5.17,4.45l-5.01-5.09c2.02-2.9,4.49-5.06,7.39-6.48,2.9-1.42,6.1-2.13,9.6-2.13,4.98,0,8.97,1.45,11.98,4.35Zm-7.22,28.68c2.02-1.89,3.04-4.27,3.04-7.14v-.77h-10.34c-2.3,0-4.06.43-5.29,1.29-1.23.86-1.85,2.15-1.85,3.87s.66,3.15,1.97,4.13,3.01,1.46,5.09,1.46c2.9,0,5.36-.95,7.39-2.84Z"/>
        <path class="cls-1" d="m1208.19,361.36c2.68,2.93,4.02,6.8,4.02,11.61v25.19h-8.62v-24.04c0-2.79-.81-5.05-2.42-6.77-1.61-1.72-3.73-2.59-6.36-2.59s-4.88.88-6.61,2.63c-1.72,1.75-2.59,3.99-2.59,6.73v24.04h-8.62v-40.29h8.04v3.94c3.06-3.23,7.08-4.84,12.06-4.84,4.7,0,8.4,1.46,11.08,4.39Z"/>
        <path class="cls-1" d="m1261.45,357.87l-19.61,44.89c-1.7,3.83-3.72,6.63-6.07,8.41-2.35,1.78-5.25,2.67-8.7,2.67-2.24,0-4.46-.27-6.65-.82v-7.3c2.52.22,4.1.33,4.76.33,2.02,0,3.75-.42,5.17-1.27,1.42-.85,2.63-2.39,3.61-4.64l1.64-3.78-16.08-38.49h9.27l11.57,29.3,11.9-29.3h9.19Z"/>
      </g>
    </g>
  </g>
</svg>